<svg width="12" height="15" viewBox="0 0 12 15" fill="none" xmlns="http://www.w3.org/2000/svg">
<path d="M10.5 0C11.3284 0 12 0.671573 12 1.5V13.5C12 14.3284 11.3284 15 10.5 15H1.5C0.671573 15 1.20799e-08 14.3284 0 13.5V1.5C1.93278e-07 0.671573 0.671573 0 1.5 0H10.5ZM3 10C2.44772 10 2 10.4477 2 11C2 11.5523 2.44772 12 3 12H4C4.55228 12 5 11.5523 5 11C5 10.4477 4.55228 10 4 10H3ZM3 6.5C2.44772 6.5 2 6.94772 2 7.5C2 8.05228 2.44772 8.5 3 8.5H7C7.55228 8.5 8 8.05229 8 7.5C8 6.94772 7.55228 6.5 7 6.5H3ZM3 3C2.44772 3 2 3.44772 2 4C2 4.55228 2.44772 5 3 5H7C7.55228 5 8 4.55228 8 4C8 3.44772 7.55228 3 7 3H3Z" fill="#A3A3A3"/>
</svg>
