<svg width="15" height="15" viewBox="0 0 15 15" fill="none" xmlns="http://www.w3.org/2000/svg">
<path d="M11 0C11.5523 1.17599e-07 12 0.447715 12 1V3H13.5C14.3284 3 15 3.67157 15 4.5V13.5C15 14.3284 14.3284 15 13.5 15H1.5C0.671573 15 3.18142e-07 14.3284 0 13.5V4.5C3.62117e-08 3.67157 0.671573 3 1.5 3H3V1C3 0.447715 3.44772 2.41411e-08 4 0C4.55228 1.17599e-07 5 0.447715 5 1V3H10V1C10 0.447715 10.4477 2.41411e-08 11 0ZM10.5898 6.51562C9.90197 5.82814 8.79725 5.82813 8.10938 6.51562L7.5 7.125L6.89062 6.51562C6.20275 5.82813 5.09803 5.82814 4.41016 6.51562C3.72219 7.2036 3.72219 8.3091 4.41016 8.99707L5.01855 9.60645L7.35352 11.9404C7.43246 12.0194 7.57926 12.0194 7.6582 11.9404L9.98145 9.60645L10.5898 8.99707C11.2778 8.3091 11.2778 7.2036 10.5898 6.51562Z" fill="#A3A3A3"/>
</svg>
