<svg width="116" height="13" viewBox="0 0 116 13" fill="none" xmlns="http://www.w3.org/2000/svg">
<path d="M0 0.253482H8.49164C11.0265 0.253482 12.4025 1.26741 12.4025 3.27716C12.4025 4.50836 11.9136 5.61281 10.3747 6.11978C12.0947 6.55432 12.7827 7.62256 12.7827 9.08914C12.7827 11.461 11.4429 12.7465 8.6727 12.7465H0V0.253482ZM9.37883 9.16156V8.69081C9.37883 7.87605 8.79944 7.40529 7.71309 7.40529H3.36769V10.5195H7.71309C8.78134 10.5195 9.37883 10.0669 9.37883 9.16156ZM8.99861 4.0195V3.67549C8.99861 2.89694 8.47354 2.4805 7.49582 2.4805H3.36769V5.28691H7.49582C8.45543 5.28691 8.99861 4.83426 8.99861 4.0195Z" fill="#FF5100"/>
<path d="M13.8764 0.253482H17.2803V12.7465H13.8764V0.253482Z" fill="#FF5100"/>
<path d="M18.422 6.51811C18.422 1.64763 21.1379 0 25.7368 0C29.9192 0 32.3997 1.15877 32.8705 4.38162H29.4303C29.0682 2.98747 27.8732 2.60724 25.7368 2.60724C23.2563 2.60724 21.8802 3.29527 21.8802 5.77577V7.26045C21.8802 9.74095 23.2381 10.3928 25.7187 10.3928C28.2716 10.3928 29.5028 9.77716 29.7019 8.20195H25.7911V5.93872H33.0153V7.31476C33.0153 11.3705 30.1727 13 25.7368 13C21.1379 13 18.422 11.4429 18.422 6.51811Z" fill="#FF5100"/>
<path d="M34.1324 0.253482H37.5363V4.9429H44.163V0.253482H47.5669V12.7465H44.163V7.71309H37.5363V12.7465H34.1324V0.253482Z" fill="#FF5100"/>
<path d="M49.2288 0.253482H60.6174V2.86073H52.6327V5.10585H58.7887V7.62256H52.6327V10.1393H60.6898V12.7465H49.2288V0.253482Z" fill="#FF5100"/>
<path d="M65.9422 7.51393H70.2152L68.0787 2.4805L65.9422 7.51393ZM65.9241 0.253482H70.6135L75.991 12.7465H72.4422L71.2653 9.97632H64.8921L63.7152 12.7465H60.5286L65.9241 0.253482Z" fill="#FF5100"/>
<path d="M76.3451 0.253482H84.8368C87.7699 0.253482 89.4357 1.66574 89.4357 4.27298C89.4357 6.21031 88.5666 7.47772 87.0095 8.0571L89.7797 12.7465H86.0137L83.4607 8.41922H79.749V12.7465H76.3451V0.253482ZM85.9775 4.49025V4.12813C85.9775 3.29527 85.5429 2.7702 84.3298 2.7702H79.749V5.8844H84.3298C85.5248 5.8844 85.9775 5.32312 85.9775 4.49025Z" fill="#FF5100"/>
<path d="M94.2929 3.02368H89.3319V0.253482H102.658V3.02368H97.6968V12.7465H94.2929V3.02368Z" fill="#FF5100"/>
<path d="M102.438 8.85376H105.896C106.15 10.1936 107.164 10.5014 109.282 10.5014C111.473 10.5014 112.523 10.1574 112.523 9.08914C112.523 6.39137 102.637 9.55989 102.637 3.92897C102.637 1.12256 105.045 0 109.101 0C113.175 0 115.438 1.12256 115.673 3.96518H112.215C112.034 2.7883 110.911 2.49861 109.101 2.49861C106.946 2.49861 105.987 2.7883 105.987 3.87465C105.987 6.42758 115.872 3.45822 115.872 8.85376C115.872 11.8231 113.754 13 109.282 13C104.719 13 102.691 11.7869 102.438 8.85376Z" fill="#FF5100"/>
</svg>
