<svg width="14" height="16" viewBox="0 0 14 16" fill="none" xmlns="http://www.w3.org/2000/svg">
<path d="M13.8411 11.0809C13.4364 10.3837 12.8347 8.41093 12.8347 5.83434C12.8347 4.28698 12.22 2.80299 11.1259 1.70884C10.0317 0.614688 8.54773 0 7.00036 0C5.453 0 3.96901 0.614688 2.87486 1.70884C1.78071 2.80299 1.16602 4.28698 1.16602 5.83434C1.16602 8.41166 0.563627 10.3837 0.15887 11.0809C0.0555075 11.2581 0.000711275 11.4595 6.87793e-06 11.6647C-0.00069752 11.8699 0.052715 12.0716 0.154858 12.2496C0.257001 12.4275 0.404262 12.5754 0.58179 12.6783C0.759319 12.7812 0.960838 12.8354 1.16602 12.8356H4.14227C4.27687 13.4942 4.63485 14.0862 5.15564 14.5113C5.67644 14.9364 6.32808 15.1686 7.00036 15.1686C7.67264 15.1686 8.32429 14.9364 8.84509 14.5113C9.36588 14.0862 9.72386 13.4942 9.85846 12.8356H12.8347C13.0398 12.8353 13.2413 12.7809 13.4187 12.678C13.5961 12.5751 13.7433 12.4272 13.8453 12.2492C13.9474 12.0713 14.0007 11.8696 14 11.6645C13.9993 11.4594 13.9445 11.2581 13.8411 11.0809ZM7.00036 14.0024C6.6385 14.0023 6.28557 13.89 5.99015 13.6811C5.69472 13.4721 5.47132 13.1767 5.3507 12.8356H8.65002C8.5294 13.1767 8.30601 13.4721 8.01058 13.6811C7.71516 13.89 7.36223 14.0023 7.00036 14.0024Z" fill="#A3A3A3"/>
</svg>
