<svg xmlns="http://www.w3.org/2000/svg" width="12" height="12" viewBox="0 0 12 12" fill="none">
    <path d="M0.202162 0.202162C0.471711 -0.0673873 0.909462 -0.0673873 1.17901 0.202162L11.7978 10.821C12.0674 11.0905 12.0674 11.5283 11.7978 11.7978C11.5283 12.0674 11.0905 12.0674 10.821 11.7978L0.202162 1.17901C-0.0673873 0.909462 -0.0673873 0.471711 0.202162 0.202162Z" fill="CurrentColor"/>
    <path d="M10.821 0.202162C11.0905 -0.0673873 11.5283 -0.0673873 11.7978 0.202162C12.0674 0.471711 12.0674 0.909462 11.7978 1.17901L1.17901 11.7978C0.909462 12.0674 0.471711 12.0674 0.202162 11.7978C-0.0673873 11.5283 -0.0673873 11.0905 0.202162 10.821L10.821 0.202162Z" fill="CurrentColor"/>
</svg>