<svg width="15" height="15" viewBox="0 0 15 15" fill="none" xmlns="http://www.w3.org/2000/svg">
<path d="M7.5 0C11.6421 0 15 3.35786 15 7.5C15 11.6421 11.6421 15 7.5 15H1.5C0.671573 15 1.20799e-08 14.3284 0 13.5V7.5C0 3.35786 3.35786 0 7.5 0ZM4.5 6.5C3.94772 6.5 3.5 6.94772 3.5 7.5C3.5 8.05229 3.94772 8.5 4.5 8.5C5.05228 8.5 5.5 8.05229 5.5 7.5C5.5 6.94772 5.05228 6.5 4.5 6.5ZM7.5 6.5C6.94772 6.5 6.5 6.94772 6.5 7.5C6.5 8.05229 6.94772 8.5 7.5 8.5C8.05229 8.5 8.5 8.05229 8.5 7.5C8.5 6.94772 8.05229 6.5 7.5 6.5ZM10.5 6.5C9.94771 6.5 9.5 6.94772 9.5 7.5C9.5 8.05229 9.94771 8.5 10.5 8.5C11.0523 8.5 11.5 8.05229 11.5 7.5C11.5 6.94772 11.0523 6.5 10.5 6.5Z" fill="#A3A3A3"/>
</svg>
