<svg width="15" height="15" viewBox="0 0 15 15" fill="none" xmlns="http://www.w3.org/2000/svg">
<path d="M14.3998 7.2001V14.4C14.3998 14.5591 14.3366 14.7117 14.2241 14.8243C14.1116 14.9368 13.959 15 13.7998 15H0.6C0.440872 15 0.288262 14.9368 0.175741 14.8243C0.063221 14.7117 7.54002e-06 14.5591 7.54002e-06 14.4V7.2001C-0.000553985 7.04234 0.0302536 6.88604 0.090639 6.74029C0.151024 6.59454 0.239783 6.46225 0.351753 6.35111L6.35168 0.351189C6.57669 0.126319 6.8818 0 7.19991 0C7.51803 0 7.82314 0.126319 8.04815 0.351189L14.0481 6.35111C14.16 6.46225 14.2488 6.59454 14.3092 6.74029C14.3696 6.88604 14.4004 7.04234 14.3998 7.2001Z" fill="#A3A3A3"/>
</svg>
